<?xml version="1.0" standalone="no"?><!DOCTYPE svg PUBLIC "-//W3C//DTD SVG 1.1//EN" "http://www.w3.org/Graphics/SVG/1.1/DTD/svg11.dtd"><svg t="1742304605199" class="icon" viewBox="0 0 1024 1024" version="1.1" xmlns="http://www.w3.org/2000/svg" p-id="6799" xmlns:xlink="http://www.w3.org/1999/xlink" width="200" height="200"><path d="M371.0976 758.3744V283.4432h135.168c72.4992 0 131.4816 20.8896 180.0192 62.6688 47.3088 41.7792 71.2704 97.6896 71.2704 168.96 0 73.728-23.9616 132.7104-71.2704 177.5616s-108.7488 66.9696-184.32 66.9696h-131.4816v-1.2288h0.6144z m61.44-422.0928v365.568h68.1984c60.2112 0 107.52-16.5888 141.312-49.152 33.792-33.792 50.3808-79.872 50.3808-138.24s-16.5888-103.2192-51.6096-133.9392-81.1008-44.8512-137.0112-44.8512l-71.2704 0.6144z" fill="#5470c6" p-id="6800"></path><path d="M516.096 58.5728c-254.3616 0-460.8 206.4384-460.8 460.8s206.4384 460.8 460.8 460.8 460.8-206.4384 460.8-460.8-206.4384-460.8-460.8-460.8z m0 866.9184c-223.6416 0-404.8896-181.248-404.8896-404.8896S292.4544 115.712 516.096 115.712 920.9856 296.96 920.9856 520.6016 739.7376 925.4912 516.096 925.4912z" fill="#5470c6" p-id="6801"></path></svg>